<?xml version="1.0" encoding="UTF-8" standalone="no"?>
<svg
   xmlns:dc="http://purl.org/dc/elements/1.1/"
   xmlns:cc="http://creativecommons.org/ns#"
   xmlns:rdf="http://www.w3.org/1999/02/22-rdf-syntax-ns#"
   xmlns:svg="http://www.w3.org/2000/svg"
   xmlns="http://www.w3.org/2000/svg"
   xmlns:sodipodi="http://sodipodi.sourceforge.net/DTD/sodipodi-0.dtd"
   xmlns:inkscape="http://www.inkscape.org/namespaces/inkscape"
   viewBox="0 0 250 205"
   id="svg2"
   version="1.1"
   inkscape:version="0.91 r13725"
   sodipodi:docname="logo-white.svg"
   width="250"
   height="205">
  <metadata
     id="metadata33">
    <rdf:RDF>
      <cc:Work
         rdf:about="">
        <dc:format>image/svg+xml</dc:format>
        <dc:type
           rdf:resource="http://purl.org/dc/dcmitype/StillImage" />
        <dc:title />
      </cc:Work>
    </rdf:RDF>
  </metadata>
  <defs
     id="defs31">
    <style
       id="style5">.cls-1{fill:#f1f0ef;}.cls-2{fill:#ef4923;}</style>
    <style
       id="style7237">.cls-1{fill:#ef4923;}.cls-2{fill:#353a42;}</style>
  </defs>
  <sodipodi:namedview
     pagecolor="#ffffff"
     bordercolor="#666666"
     borderopacity="1"
     objecttolerance="10"
     gridtolerance="10"
     guidetolerance="10"
     inkscape:pageopacity="0"
     inkscape:pageshadow="2"
     inkscape:window-width="1212"
     inkscape:window-height="716"
     id="namedview29"
     showgrid="false"
     inkscape:zoom="1.8806438"
     inkscape:cx="34.061051"
     inkscape:cy="104.25252"
     inkscape:window-x="0"
     inkscape:window-y="0"
     inkscape:window-maximized="0"
     inkscape:current-layer="svg2"
     showguides="true"
     inkscape:guide-bbox="true" />
  <style
     id="style4">
    .st0{fill:#464646;} .st1{fill:none;stroke:#464646;stroke-width:3.6708;stroke-miterlimit:10;} .st2{fill-rule:evenodd;clip-rule:evenodd;fill:#464646;}
  </style>
  <g
     id="g4265"
     transform="translate(120.11826,33.094308)" />
  <g
     id="g4267"
     transform="translate(120.11826,33.094308)" />
  <g
     id="g4269"
     transform="translate(120.11826,33.094308)" />
  <g
     id="g4271"
     transform="translate(120.11826,33.094308)" />
  <g
     id="g4273"
     transform="translate(120.11826,33.094308)" />
  <g
     id="g4275"
     transform="translate(120.11826,33.094308)" />
  <g
     id="g4277"
     transform="translate(120.11826,33.094308)" />
  <g
     id="g4279"
     transform="translate(120.11826,33.094308)" />
  <g
     id="g4281"
     transform="translate(120.11826,33.094308)" />
  <g
     id="g4283"
     transform="translate(120.11826,33.094308)" />
  <g
     id="g4285"
     transform="translate(120.11826,33.094308)" />
  <g
     id="g4287"
     transform="translate(120.11826,33.094308)" />
  <g
     id="g4289"
     transform="translate(120.11826,33.094308)" />
  <g
     id="g4291"
     transform="translate(120.11826,33.094308)" />
  <g
     id="g4293"
     transform="translate(120.11826,33.094308)" />
  <g
     id="g4362"
     transform="matrix(0.01469046,0.99989209,-0.99989209,0.01469046,-84.592029,-162.69434)" />
  <g
     id="g4364"
     transform="matrix(0.01469046,0.99989209,-0.99989209,0.01469046,-84.592029,-162.69434)" />
  <g
     id="g4366"
     transform="matrix(0.01469046,0.99989209,-0.99989209,0.01469046,-84.592029,-162.69434)" />
  <g
     id="g4368"
     transform="matrix(0.01469046,0.99989209,-0.99989209,0.01469046,-84.592029,-162.69434)" />
  <g
     id="g4370"
     transform="matrix(0.01469046,0.99989209,-0.99989209,0.01469046,-84.592029,-162.69434)" />
  <g
     id="g4372"
     transform="matrix(0.01469046,0.99989209,-0.99989209,0.01469046,-84.592029,-162.69434)" />
  <g
     id="g4374"
     transform="matrix(0.01469046,0.99989209,-0.99989209,0.01469046,-84.592029,-162.69434)" />
  <g
     id="g4376"
     transform="matrix(0.01469046,0.99989209,-0.99989209,0.01469046,-84.592029,-162.69434)" />
  <g
     id="g4378"
     transform="matrix(0.01469046,0.99989209,-0.99989209,0.01469046,-84.592029,-162.69434)" />
  <g
     id="g4380"
     transform="matrix(0.01469046,0.99989209,-0.99989209,0.01469046,-84.592029,-162.69434)" />
  <g
     id="g4382"
     transform="matrix(0.01469046,0.99989209,-0.99989209,0.01469046,-84.592029,-162.69434)" />
  <g
     id="g4384"
     transform="matrix(0.01469046,0.99989209,-0.99989209,0.01469046,-84.592029,-162.69434)" />
  <g
     id="g4386"
     transform="matrix(0.01469046,0.99989209,-0.99989209,0.01469046,-84.592029,-162.69434)" />
  <g
     id="g4388"
     transform="matrix(0.01469046,0.99989209,-0.99989209,0.01469046,-84.592029,-162.69434)" />
  <g
     id="g4390"
     transform="matrix(0.01469046,0.99989209,-0.99989209,0.01469046,-84.592029,-162.69434)" />
  <g
     id="g8800"
     transform="translate(25.63991,-371.27009)" />
  <g
     id="g8802"
     transform="translate(25.63991,-371.27009)" />
  <g
     id="g8804"
     transform="translate(25.63991,-371.27009)" />
  <g
     id="g8806"
     transform="translate(25.63991,-371.27009)" />
  <g
     id="g8808"
     transform="translate(25.63991,-371.27009)" />
  <g
     id="g8810"
     transform="translate(25.63991,-371.27009)" />
  <g
     id="g8812"
     transform="translate(25.63991,-371.27009)" />
  <g
     id="g8814"
     transform="translate(25.63991,-371.27009)" />
  <g
     id="g8816"
     transform="translate(25.63991,-371.27009)" />
  <g
     id="g8818"
     transform="translate(25.63991,-371.27009)" />
  <g
     id="g8820"
     transform="translate(25.63991,-371.27009)" />
  <g
     id="g8822"
     transform="translate(25.63991,-371.27009)" />
  <g
     id="g8824"
     transform="translate(25.63991,-371.27009)" />
  <g
     id="g8826"
     transform="translate(25.63991,-371.27009)" />
  <g
     id="g8828"
     transform="translate(25.63991,-371.27009)" />
  <g
     id="g6170"
     transform="matrix(1.6144392,0,0,1.6144392,173.95236,248.66348)" />
  <g
     id="g6172"
     transform="matrix(1.6144392,0,0,1.6144392,173.95236,248.66348)" />
  <g
     id="g6174"
     transform="matrix(1.6144392,0,0,1.6144392,173.95236,248.66348)" />
  <g
     id="g6176"
     transform="matrix(1.6144392,0,0,1.6144392,173.95236,248.66348)" />
  <g
     id="g6178"
     transform="matrix(1.6144392,0,0,1.6144392,173.95236,248.66348)" />
  <g
     id="g6180"
     transform="matrix(1.6144392,0,0,1.6144392,173.95236,248.66348)" />
  <g
     id="g6182"
     transform="matrix(1.6144392,0,0,1.6144392,173.95236,248.66348)" />
  <g
     id="g6184"
     transform="matrix(1.6144392,0,0,1.6144392,173.95236,248.66348)" />
  <g
     id="g6186"
     transform="matrix(1.6144392,0,0,1.6144392,173.95236,248.66348)" />
  <g
     id="g6188"
     transform="matrix(1.6144392,0,0,1.6144392,173.95236,248.66348)" />
  <g
     id="g6190"
     transform="matrix(1.6144392,0,0,1.6144392,173.95236,248.66348)" />
  <g
     id="g6192"
     transform="matrix(1.6144392,0,0,1.6144392,173.95236,248.66348)" />
  <g
     id="g6194"
     transform="matrix(1.6144392,0,0,1.6144392,173.95236,248.66348)" />
  <g
     id="g6196"
     transform="matrix(1.6144392,0,0,1.6144392,173.95236,248.66348)" />
  <g
     id="g6198"
     transform="matrix(1.6144392,0,0,1.6144392,173.95236,248.66348)" />
  <g
     id="g6651"
     transform="matrix(3.0384358,0,0,3.026486,-303.2058,-351.90454)"
     style="fill:#ebebeb;fill-opacity:1">
    <path
       id="path6274"
       d="m 140.90234,116.27539 c -13.03173,0 -23.63669,10.60304 -23.63672,23.63477 0,13.03173 10.60499,23.63476 23.63672,23.63476 13.03173,0 23.63477,-10.60303 23.63477,-23.63476 0,-2.35957 -0.35344,-4.6363 -1.00195,-6.78711 0.44554,0.0856 0.89277,0.17385 1.32031,0.27343 0.63125,0.11301 1.21339,0.35192 1.79297,0.47461 0.57474,0.12432 1.17332,0.11197 1.71094,0.18946 0.536,0.0823 1.06405,0.12117 1.57421,0.13086 0.25347,0.0113 0.50622,0.002 0.75,-0.006 0.23409,0.0145 0.43864,0.0648 0.65821,0.0664 0.42298,0.0291 0.81755,0.0436 1.1582,0.0371 0.67806,-0.003 1.13477,-0.0586 1.13477,-0.0586 l 0.0332,-0.002 c 0.0258,-0.003 0.0503,-0.0105 0.0762,-0.0215 0.13077,-0.0597 0.18864,-0.21561 0.12891,-0.34961 l 0,-0.002 c 0,0 -0.17111,-0.38297 -0.59571,-0.96094 -0.20988,-0.29383 -0.48586,-0.63063 -0.82812,-1.00195 -0.3358,-0.38908 -0.76031,-0.75117 -1.26563,-1.05469 -0.50047,-0.32611 -1.06559,-0.6519 -1.68554,-0.95703 -0.61671,-0.31965 -1.32038,-0.43452 -2.04688,-0.58789 -0.22764,-0.0339 -0.45927,-0.0516 -0.69336,-0.0742 0.51985,-0.20019 1.02494,-0.39541 1.48828,-0.62305 0.49886,-0.21311 0.96468,-0.42523 1.38282,-0.63672 0.41814,-0.23087 0.79422,-0.38363 1.10742,-0.56445 0.62802,-0.33741 1.0039,-0.61328 1.0039,-0.61328 l 0.0117,-0.008 c 0.0242,-0.0178 0.0467,-0.041 0.0645,-0.0684 0.0823,-0.1227 0.0481,-0.28842 -0.0762,-0.36914 0,0 -0.37314,-0.24881 -1.0625,-0.54102 -0.34388,-0.14369 -0.76897,-0.32417 -1.25976,-0.43554 -0.49079,-0.11142 -1.05517,-0.2379 -1.67188,-0.31055 -0.6151,-0.042 -1.29092,-0.0699 -1.99804,-0.0215 -0.70229,0.0775 -1.45098,0.1606 -2.18555,0.41407 -0.73618,0.24701 -1.46697,0.59084 -2.16602,1.0332 -0.52522,0.2881 -1.02981,0.63648 -1.53515,0.97461 -0.0387,-0.021 -0.0741,-0.0459 -0.11328,-0.0664 -1.18822,-0.75718 -2.51866,-1.29235 -3.8086,-1.89453 -1.34483,-0.47142 -2.66848,-1.02157 -4.04883,-1.31055 -1.34967,-0.40039 -2.72659,-0.55862 -4.04882,-0.80078 -1.33675,-0.05 -2.6341,-0.28944 -3.86914,-0.21679 -0.61833,0.005 -1.21993,0.009 -1.80274,0.0137 -0.57797,0.0614 -1.14012,0.12318 -1.67773,0.17969 -1.08329,0.0856 -2.05594,0.28649 -2.92774,0.45117 -0.43751,0.0807 -0.84683,0.15714 -1.22461,0.22656 -0.36809,0.10817 -0.70692,0.20613 -1.01367,0.29492 -1.23827,0.34226 -1.94726,0.53906 -1.94726,0.53906 0,0 0.67005,-0.30478 1.84375,-0.83593 0.29705,-0.12754 0.62596,-0.26884 0.98437,-0.42383 0.37132,-0.11785 0.77369,-0.2472 1.20313,-0.38281 0.85888,-0.28092 1.83194,-0.61226 2.93945,-0.76563 0.55052,-0.10171 1.1243,-0.20629 1.7168,-0.31445 0.60218,-0.0517 1.22396,-0.10331 1.86328,-0.1582 1.28025,-0.16953 2.63943,-0.0457 4.04883,-0.0215 1.38681,0.20665 2.85535,0.28499 4.27929,0.70313 1.45622,0.29059 2.86123,0.84251 4.28516,1.33007 0.89602,0.42944 1.7887,0.85562 2.66211,1.3125 -0.3019,-0.40038 -0.58336,-0.81821 -0.90625,-1.19921 -0.27284,-0.32288 -0.54824,-0.64052 -0.83399,-0.94727 l 0.14649,0.0469 c -4.28004,-4.28201 -10.19114,-6.93359 -16.70899,-6.93359 z m 3.36524,16.39844 c 10.08926,0.005 18.28433,2.70779 16.38867,15.04687 -14.35622,0 -42.87984,8.51428 -39.50977,-13.42187 6.28085,0 15.27389,-1.62859 23.1211,-1.625 z m -13.25977,1.48828 c -0.74284,0.0912 -0.96081,1.33579 -0.0859,1.61523 2.16901,0.69264 4.04466,1.86893 5.61914,3.51172 0.73019,0.76225 1.88352,-0.396 1.15429,-1.15625 -1.76666,-1.84353 -3.90998,-3.15505 -6.33984,-3.93164 -0.12589,-0.0402 -0.24154,-0.0521 -0.34766,-0.0391 z m 20.63281,1.75 c -2.56454,0.006 -4.98167,0.6301 -7.24023,1.8418 -0.92901,0.49775 -0.10445,1.91021 0.82422,1.41211 2.01185,-1.07901 4.13354,-1.6156 6.41601,-1.6211 1.05377,-0.002 1.05413,-1.63542 0,-1.63281 z m -18.81835,3.04297 a 3.250994,3.250994 0 0 0 -3.25,3.25 3.250994,3.250994 0 0 0 3.25,3.25195 3.250994,3.250994 0 0 0 3.25195,-3.25195 3.250994,3.250994 0 0 0 -3.25195,-3.25 z m 16.29296,0 a 3.250994,3.250994 0 0 0 -3.25,3.25 3.250994,3.250994 0 0 0 3.25,3.25195 3.250994,3.250994 0 0 0 3.25196,-3.25195 3.250994,3.250994 0 0 0 -3.25196,-3.25 z"
       style="color:#000000;font-style:normal;font-variant:normal;font-weight:normal;font-stretch:normal;font-size:medium;line-height:normal;font-family:sans-serif;text-indent:0;text-align:start;text-decoration:none;text-decoration-line:none;text-decoration-style:solid;text-decoration-color:#000000;letter-spacing:normal;word-spacing:normal;text-transform:none;direction:ltr;block-progression:tb;writing-mode:lr-tb;baseline-shift:baseline;text-anchor:start;white-space:normal;clip-rule:nonzero;display:inline;overflow:visible;visibility:visible;opacity:1;isolation:auto;mix-blend-mode:normal;color-interpolation:sRGB;color-interpolation-filters:linearRGB;solid-color:#000000;solid-opacity:1;fill:#ebebeb;fill-opacity:1;fill-rule:nonzero;stroke:none;stroke-width:3.67079997;stroke-linecap:butt;stroke-linejoin:miter;stroke-miterlimit:10;stroke-dasharray:none;stroke-dashoffset:0;stroke-opacity:1;color-rendering:auto;image-rendering:auto;shape-rendering:auto;text-rendering:auto;enable-background:accumulate"
       inkscape:connector-curvature="0" />
    <path
       id="path5994"
       d="m 177.37891,133.11523 c -0.0648,0.003 -0.12977,0.0135 -0.19336,0.0332 -0.25404,0.079 -0.44825,0.28455 -0.51172,0.54297 -0.66635,2.71292 -1.85377,3.38019 -3.11133,4.08593 -1.09684,0.61549 -2.33896,1.31348 -2.79297,3.36133 -0.40457,1.82365 0.38528,3.58968 2.11328,4.72461 0.12242,0.0804 0.25459,0.13846 0.39063,0.17188 0.34502,0.0847 0.71579,0.0176 1.01953,-0.19727 0.4267,-0.30175 0.62077,-0.8234 0.49609,-1.33008 -0.30316,-1.23145 0.007,-2.16127 0.94532,-2.8164 0.10032,0.68759 0.36994,1.23071 0.60351,1.70117 0.2957,0.59578 0.4449,0.92577 0.33984,1.35351 -0.0373,0.15189 -0.0823,0.29449 -0.13281,0.42188 -0.16897,0.42803 -0.0897,0.91229 0.20703,1.26562 0.29755,0.35444 0.76369,0.51855 1.2168,0.42579 1.76128,-0.36136 3.06582,-1.45075 3.67187,-3.06641 0.83638,-2.22902 0.44398,-4.76205 -1.13476,-7.32617 -1.15446,-1.87495 -2.53182,-3.10862 -2.58984,-3.16016 -0.14916,-0.13244 -0.3427,-0.19962 -0.53711,-0.19141 z m -7.08594,12.54883 c -0.41905,0.0247 -0.82809,0.20828 -1.12891,0.54688 l -0.62109,0.6914 3.74023,6.13282 1.99805,-2.22266 0.0137,-0.0137 c 0.60223,-0.67724 0.54048,-1.71473 -0.13672,-2.31641 l -2.66601,-2.39453 c -0.004,-0.005 -0.01,-0.006 -0.0137,-0.0117 -0.33862,-0.30111 -0.7665,-0.43683 -1.18555,-0.41211 z m -2.56055,2.13867 -2.41211,2.6836 5.75586,3.87305 0.39649,-0.44141 -3.74024,-6.11524 z m -3.1875,3.54688 -0.39453,0.45898 3.7207,6.11719 2.42969,-2.70312 -5.75586,-3.87305 z m -1.20508,1.3418 -2.55078,2.83789 c -2.46448,-1.71195 -4.60217,-2.45657 -5.29101,-1.68946 -1.36158,1.51431 -0.0669,3.19644 2.10351,5.23438 -5.52445,6.56951 -11.23201,12.95663 -17.00195,19.2832 l 8.90234,0 13.23438,-14.71875 c 2.23175,1.79744 4.03575,2.75968 5.24219,1.41797 0.67149,-0.74775 -0.14715,-2.72972 -2.08985,-4.92578 l 1.18945,-1.32422 -3.73828,-6.11523 z"
       style="fill:#ebebeb;fill-opacity:1"
       inkscape:connector-curvature="0" />
    <path
       style="fill:#ebebeb;fill-opacity:1"
       inkscape:connector-curvature="0"
       id="path5975"
       d="m 141.10757,162.41028 c -14.7779,0 -26.8689,4.6 -26.8689,10.2 l 0,11.4 53.62584,0 0,-11.4 c 0,-5.6 -11.97905,-10.2 -26.75694,-10.2 z"
       class="st0" />
    <path
       id="path8986"
       d="m 104.48047,133.42383 c -0.19441,-0.008 -0.38795,0.059 -0.53711,0.1914 -0.058,0.0515 -1.43538,1.28521 -2.58984,3.16016 -1.578744,2.56412 -1.97115,5.09715 -1.13477,7.32617 0.60605,1.61566 1.9106,2.70505 3.67187,3.06641 0.45312,0.0928 0.91925,-0.0713 1.2168,-0.42578 0.29673,-0.35333 0.376,-0.8376 0.20703,-1.26563 -0.0505,-0.12739 -0.0955,-0.26998 -0.13281,-0.42187 -0.10506,-0.42774 0.0441,-0.75774 0.33984,-1.35352 0.23357,-0.47046 0.5032,-1.01358 0.60352,-1.70117 0.93832,0.65513 1.24847,1.58496 0.94531,2.81641 -0.12468,0.50668 0.0694,1.02832 0.4961,1.33007 0.30374,0.21487 0.67451,0.28197 1.01953,0.19727 0.13604,-0.0334 0.2682,-0.0915 0.39062,-0.17187 1.728,-1.13494 2.51785,-2.90096 2.11328,-4.72461 -0.45401,-2.04785 -1.69612,-2.74584 -2.79296,-3.36133 -1.25757,-0.70574 -2.44498,-1.37302 -3.11133,-4.08594 -0.0635,-0.25842 -0.25768,-0.46397 -0.51172,-0.54297 -0.0636,-0.0197 -0.12856,-0.0302 -0.19336,-0.0332 z m 6.55078,12.24023 c -0.41905,-0.0247 -0.84693,0.111 -1.18555,0.41211 -0.004,0.006 -0.0101,0.006 -0.0137,0.0117 l -2.66601,2.39453 c -0.6772,0.60168 -0.73895,1.63917 -0.13672,2.31641 l 0.0137,0.0137 1.99805,2.22266 3.74023,-6.13282 -0.62109,-0.6914 c -0.30082,-0.3386 -0.70986,-0.52215 -1.12891,-0.54688 z m 2.56055,2.13867 -3.74024,6.11524 0.39649,0.44141 5.75586,-3.87305 -2.41211,-2.6836 z m 3.1875,3.54688 -5.75586,3.87305 2.42968,2.70312 3.72071,-6.11719 -0.39453,-0.45898 z m 1.20508,1.3418 -3.73829,6.11523 1.18946,1.32422 c -1.9427,2.19606 -2.76134,4.17803 -2.08985,4.92578 1.20644,1.34171 3.01044,0.37947 5.24219,-1.41797 l 13.23438,14.71875 8.90234,0 c -5.76992,-6.32655 -11.47752,-12.71371 -17.00195,-19.2832 2.17036,-2.03794 3.46509,-3.72007 2.10351,-5.23438 -0.68884,-0.76711 -2.82653,-0.0225 -5.29101,1.68946 l -2.55078,-2.83789 z"
       style="fill:#ebebeb;fill-opacity:1"
       inkscape:connector-curvature="0" />
  </g>
  <g
     id="g6539"
     transform="translate(-96.604541,49.540735)" />
  <g
     id="g6541"
     transform="translate(-96.604541,49.540735)" />
  <g
     id="g6543"
     transform="translate(-96.604541,49.540735)" />
  <g
     id="g6545"
     transform="translate(-96.604541,49.540735)" />
  <g
     id="g6547"
     transform="translate(-96.604541,49.540735)" />
  <g
     id="g6549"
     transform="translate(-96.604541,49.540735)" />
  <g
     id="g6551"
     transform="translate(-96.604541,49.540735)" />
  <g
     id="g6553"
     transform="translate(-96.604541,49.540735)" />
  <g
     id="g6555"
     transform="translate(-96.604541,49.540735)" />
  <g
     id="g6557"
     transform="translate(-96.604541,49.540735)" />
  <g
     id="g6559"
     transform="translate(-96.604541,49.540735)" />
  <g
     id="g6561"
     transform="translate(-96.604541,49.540735)" />
  <g
     id="g6563"
     transform="translate(-96.604541,49.540735)" />
  <g
     id="g6565"
     transform="translate(-96.604541,49.540735)" />
  <g
     id="g6567"
     transform="translate(-96.604541,49.540735)" />
</svg>
